# xmcd CD database file
#
# Track frame offsets:
#	150
#	7886
#	31963
#	50120
#	62947
#	92433
#	112443
#
# Disc length: 2004 seconds
#
# Revision: 0
# Processed by: cddbd v1.5.2PL0 Copyright (c) Steve Scherf et al.
# Submitted via: CDex 1.51
#
DISCID=5b07d207
DTITLE=De Biasio Mélanie - No Deal
DYEAR=2013
DGENRE=Jazz
TTITLE0=I Feel You
TTITLE1=The Flow
TTITLE2=No Deal
TTITLE3=With Love
TTITLE4=Sweet Darling Pain
TTITLE5=I'm Gonna Leave You
TTITLE6=With All My Love
EXTD=YEAR: 2013
EXTT0=
EXTT1=
EXTT2=
EXTT3=
EXTT4=
EXTT5=
EXTT6=
PLAYORDER=
